<?xml version="1.0" encoding="utf-8"?>
<!-- Generator: Adobe Illustrator 16.0.0, SVG Export Plug-In . SVG Version: 6.00 Build 0)  -->
<!DOCTYPE svg PUBLIC "-//W3C//DTD SVG 1.1//EN" "http://www.w3.org/Graphics/SVG/1.1/DTD/svg11.dtd">
<svg version="1.1" id="Calque_1" xmlns="http://www.w3.org/2000/svg" xmlns:xlink="http://www.w3.org/1999/xlink" x="0px" y="0px"
	 width="738px" height="258px" viewBox="0 0 738 258" enable-background="new 0 0 738 258" xml:space="preserve">
<g>
	<path fill="none" stroke="#FFFFFF" stroke-width="0.5" d="M305.157,160.362"/>
	<rect x="8" y="7.113" fill="#3FAE2A" width="724.557" height="244.774"/>
	<g>
		<g>
			<path fill="#FFFFFF" d="M646.546,78.468c3.593,0,6.428,2.793,6.428,6.346c0,3.633-2.835,6.422-6.468,6.422
				c-3.628,0-6.5-2.789-6.5-6.422c0-3.553,2.872-6.346,6.5-6.346H646.546z M646.467,79.584c-2.871,0-5.063,2.353-5.063,5.229
				c0,2.951,2.192,5.266,5.143,5.266c2.874,0.04,4.992-2.315,4.992-5.228c0-2.915-2.118-5.268-5.032-5.268H646.467z M645.352,88.325
				h-1.238v-6.663c0.678-0.12,1.397-0.202,2.313-0.202c1.12,0,1.675,0.202,2.119,0.518c0.396,0.28,0.68,0.798,0.68,1.396
				c0,0.84-0.602,1.362-1.319,1.599v0.077c0.598,0.244,0.915,0.762,1.115,1.597c0.204,1.039,0.323,1.438,0.481,1.679h-1.28
				c-0.198-0.241-0.357-0.839-0.518-1.758c-0.158-0.716-0.598-1.033-1.556-1.033h-0.797V88.325z M645.352,84.572h0.837
				c0.918,0,1.717-0.281,1.717-1.076c0-0.64-0.399-1.075-1.597-1.075c-0.482,0-0.758,0.04-0.957,0.078V84.572z"/>
		</g>
		<path fill="#FFFFFF" d="M354.251,149.322c0,9.828-5.415,18.756-14.131,23.295c-20.259,10.555-49.661,10.555-69.912,0
			c-8.727-4.539-14.142-13.467-14.142-23.295v-23.36c0-9.829,5.415-18.757,14.134-23.297h0.002
			c20.256-10.553,49.658-10.553,69.917,0c8.717,4.54,14.131,13.468,14.131,23.297V149.322z M274.673,125.962v23.36
			c0,2.915,1.54,5.455,4.125,6.798c14.787,7.701,37.946,7.701,52.722,0c2.588-1.343,4.127-3.883,4.127-6.798v-23.36
			c0-2.911-1.542-5.454-4.127-6.797c-14.776-7.704-37.941-7.704-52.722,0C276.213,120.508,274.673,123.051,274.673,125.962z"/>
		<path fill="#FFFFFF" d="M386.287,119.165c14.784-7.704,37.947-7.704,52.732,0c2.586,1.343,4.127,3.886,4.127,6.797v23.36
			c0,2.915-1.538,5.455-4.127,6.798c-14.785,7.701-37.945,7.701-52.732,0c-2.585-1.343-4.129-3.883-4.129-6.798v-23.36
			C382.158,123.051,383.702,120.508,386.287,119.165z M363.556,149.322c0,9.828,5.418,18.756,14.138,23.295
			c20.258,10.555,49.664,10.555,69.924,0c8.717-4.539,14.132-13.467,14.132-23.295v-23.36c0-9.829-5.415-18.757-14.132-23.297
			c-18.819-9.805-45.515-10.489-65.459-2.082v-20.95c0-0.323-0.125-0.609-0.337-0.824c-0.21-0.209-0.501-0.341-0.824-0.341
			c-0.156,0-0.313,0.033-0.452,0.092l-15.567,7.779c-0.279,0.117-0.524,0.288-0.742,0.501c-0.421,0.425-0.68,1.003-0.68,1.641
			V149.322z"/>
		<path fill="#FFFFFF" d="M545.474,88.833c0,1.861-1.021,3.553-2.676,4.414c-3.84,1.996-9.412,1.996-13.251,0
			c-1.648-0.861-2.677-2.552-2.677-4.414v-4.452c0-1.861,1.028-3.555,2.677-4.411l0,0c3.839-2.003,9.411-2.003,13.251,0
			c1.654,0.856,2.676,2.55,2.676,4.411V88.833z"/>
		<path fill="#FFFFFF" d="M489.658,88.833c0,1.861-1.024,3.553-2.677,4.414c-3.835,1.996-9.407,1.996-13.252,0
			c-1.65-0.861-2.676-2.552-2.676-4.414v-4.452c0-1.861,1.025-3.555,2.676-4.411l0,0c3.845-2.003,9.417-2.003,13.252,0
			c1.652,0.856,2.677,2.55,2.677,4.411V88.833z"/>
		<path fill="#FFFFFF" d="M517.566,174.723c0,0.64-0.521,1.16-1.161,1.16h-16.282c-0.644,0-1.164-0.521-1.164-1.16V88.509
			c0-0.644,0.268-1.225,0.683-1.646c0.214-0.208,0.46-0.38,0.742-0.5l15.568-7.78c0.137-0.058,0.291-0.087,0.453-0.087
			c0.317,0,0.608,0.128,0.819,0.34c0.213,0.21,0.342,0.498,0.342,0.823V174.723z"/>
		<path fill="#FFFFFF" d="M526.87,109.412c0-0.638,0.261-1.223,0.68-1.643c0.21-0.213,0.459-0.381,0.736-0.501l15.57-7.78
			c0.139-0.055,0.295-0.093,0.454-0.093c0.323,0,0.611,0.131,0.819,0.339c0.212,0.213,0.344,0.507,0.344,0.826v74.163
			c0,0.64-0.518,1.16-1.163,1.16h-16.281c-0.64,0-1.159-0.521-1.159-1.16V109.412z"/>
		<path fill="#FFFFFF" d="M489.658,109.412c0-0.638-0.258-1.223-0.68-1.643c-0.214-0.213-0.464-0.381-0.741-0.501l-15.566-7.78
			c-0.141-0.055-0.294-0.093-0.453-0.093c-0.32,0-0.608,0.131-0.825,0.339c-0.207,0.213-0.339,0.507-0.339,0.826v74.163
			c0,0.64,0.521,1.16,1.164,1.16h16.28c0.644,0,1.16-0.521,1.16-1.16V109.412z"/>
		<path fill="#FFFFFF" d="M106.188,125.962c0-2.911,1.544-5.454,4.126-6.797c13.155-6.862,32.941-7.593,47.557-2.25v57.808
			c0,0.64,0.518,1.16,1.163,1.16h16.28c0.642,0,1.163-0.521,1.163-1.16v-57.806c14.614-5.345,34.399-4.614,47.553,2.248
			c2.589,1.343,4.127,3.886,4.127,6.797v48.76c0,0.64,0.518,1.16,1.163,1.16h16.28c0.64,0,1.165-0.521,1.165-1.16v-48.76
			c0-9.829-5.417-18.757-14.135-23.297c-18.819-9.805-45.518-10.489-65.453-2.082c-19.946-8.407-46.644-7.724-65.458,2.082l0,0
			c-8.722,4.54-14.138,13.468-14.138,23.297v48.76c0,0.64,0.525,1.16,1.165,1.16h16.278c0.647,0,1.163-0.521,1.163-1.16V125.962z"/>
		<path fill="#FFFFFF" d="M554.777,125.962c0-9.829,5.416-18.757,14.133-23.297h0.001c20.255-10.553,49.669-10.553,69.927,0
			c6.609,3.44,11.313,9.403,13.205,16.37h-22.066c-14.797-7.567-37.772-7.531-52.472,0.129c-2.585,1.343-4.125,3.886-4.125,6.797
			v2.377h78.429c0.64,0,1.165,0.521,1.165,1.16v19.823c0,9.828-5.422,18.756-14.139,23.295c-20.255,10.555-49.665,10.555-69.916,0
			c-6.613-3.438-11.323-9.404-13.216-16.375h22.064c14.794,7.568,37.774,7.532,52.471-0.122c2.588-1.343,4.126-3.883,4.126-6.798
			v-2.382H555.94c-0.644,0-1.163-0.522-1.163-1.161V125.962z"/>
	</g>
	<g>
		<path fill="#FFFFFF" d="M558.153,192.465c0,0.58,0.475,0.87,1.419,0.87c0.627,0,1.633-0.306,3.021-0.915l-0.412,1.922
			c-1.633,0.352-3.311,1.159-5.034,2.427c0.137-1.146,0.67-1.924,1.601-2.335c-0.473-0.061-0.944-0.115-1.419-0.16
			c-0.518-0.151-0.778-0.466-0.778-0.938c0-0.824,0.366-1.64,1.099-2.449c0.733-0.809,1.502-1.214,2.313-1.214
			c0.747,0,1.12,0.177,1.12,0.527v1.121C559.13,191.152,558.153,191.534,558.153,192.465z M559.068,208.555
			c-0.473-3.082-0.944-6.164-1.419-9.246l2.152-2.609c0.473,2.915,0.945,5.83,1.417,8.742c0.551,3.511,0.824,6.441,0.824,8.79
			c0,0.563-0.145,1.168-0.434,1.808c-0.29,0.564-0.58,1.13-0.871,1.694C560.205,215.307,559.647,212.248,559.068,208.555z"/>
		<path fill="#FFFFFF" d="M554.376,206.494c0.627,1.481,0.94,2.992,0.94,4.533c0,0.991-0.185,1.923-0.55,2.791l-10.894-0.021
			c-0.307-0.214-0.459-0.733-0.459-1.557c0-0.854,0.152-1.411,0.459-1.671l9.475,0.046c-0.017-0.87-0.352-1.738-1.008-2.609
			c-0.824-1.113-1.313-1.869-1.463-2.266l2.012-3.296C553.041,203.161,553.537,204.512,554.376,206.494z M549.25,218.74
			l-2.014,2.288l-2.816-2.288l2.016-2.288L549.25,218.74z M554.628,218.947l-2.013,2.265l-2.814-2.265l2.013-2.289L554.628,218.947z
			"/>
		<path fill="#FFFFFF" d="M543.483,206.494c0.624,1.481,0.937,2.992,0.937,4.533c0,0.991-0.184,1.923-0.547,2.791l-10.898-0.021
			c-0.302-0.214-0.455-0.733-0.455-1.557c0-0.854,0.153-1.411,0.455-1.671l9.478,0.046c-0.017-0.87-0.352-1.738-1.008-2.609
			c-0.824-1.113-1.313-1.869-1.463-2.266l2.014-3.296C542.147,203.161,542.644,204.512,543.483,206.494z M540.989,194.64
			l-2.017,2.289l-2.837-2.289l2.037-2.289L540.989,194.64z"/>
		<path fill="#FFFFFF" d="M519.725,212.24c0-1.083,0.168-1.64,0.503-1.671c1.694-0.168,2.853-0.389,3.48-0.664
			c0.977-0.441,1.761-1.304,2.356-2.586l0.437,0.16c1.112-2.258,2.143-3.387,3.087-3.387c1.1,0,2.053,0.801,2.862,2.401
			c0.702,1.374,1.054,2.679,1.054,3.915c0,0.594-0.185,1.305-0.551,2.13c-0.304,0.656-0.616,1.318-0.937,1.99
			c-1.145-0.244-2.336-0.711-3.571-1.396c-1.389-0.778-2.35-1.579-2.886-2.402c-0.547,2.044-2.341,3.066-5.377,3.066
			C519.878,213.797,519.725,213.277,519.725,212.24z M531.514,211.003c0-0.777-0.314-1.608-0.941-2.493
			c-0.67-0.976-1.372-1.466-2.103-1.466c-0.521,0-1.009,0.336-1.467,1.008C528.574,209.562,530.077,210.546,531.514,211.003z"/>
		<path fill="#FFFFFF" d="M518.031,213.797c-0.551-2.564-1.113-5.555-1.694-8.973c-0.15-0.899-0.639-3.913-1.463-9.04l2.15-2.61
			c0.473,2.899,0.944,5.799,1.419,8.699c0.565,3.509,0.846,6.408,0.846,8.696h2.313v3.228H518.031z"/>
		<path fill="#FFFFFF" d="M492.427,212.24c0-0.854,0.175-1.396,0.526-1.625h10.805c-0.411-1.557-2.876-3.815-7.394-6.775
			l-0.182,1.122c-0.674-0.595-1.344-1.189-2.017-1.785c-0.624-0.655-0.938-1.428-0.938-2.312c0-1.816,1.624-3.716,4.875-5.699
			c2.242-1.373,4.737-2.533,7.484-3.479l-0.595,3.364c-1.436,0.319-3.127,0.97-5.081,1.945c-1.907,0.93-3.465,1.87-4.671,2.815
			c2.414,1.404,4.51,2.929,6.297,4.577c2.531,2.334,3.799,4.425,3.799,6.271v3.157h-12.384
			C492.602,213.561,492.427,213.033,492.427,212.24z"/>
		<path fill="#FFFFFF" d="M492.496,206.494c0.625,1.481,0.937,2.992,0.937,4.533c0,0.991-0.182,1.923-0.547,2.791l-10.897-0.021
			c-0.302-0.214-0.455-0.733-0.455-1.557c0-0.854,0.153-1.411,0.455-1.671l9.479,0.046c-0.017-0.87-0.353-1.738-1.009-2.609
			c-0.823-1.113-1.312-1.869-1.464-2.266l2.015-3.296C491.162,203.161,491.657,204.512,492.496,206.494z M490.003,194.64
			l-2.017,2.289l-2.836-2.289l2.036-2.289L490.003,194.64z"/>
		<path fill="#FFFFFF" d="M481.603,206.494c0.623,1.481,0.938,2.992,0.938,4.533c0,0.991-0.184,1.923-0.55,2.791l-10.896-0.021
			c-0.304-0.214-0.457-0.733-0.457-1.557c0-0.854,0.153-1.411,0.457-1.671l9.477,0.046c-0.016-0.87-0.35-1.738-1.007-2.609
			c-0.823-1.113-1.313-1.869-1.466-2.266l2.015-3.296C480.267,203.161,480.763,204.512,481.603,206.494z M476.681,198.277
			l-2.015,2.289l-2.816-2.289l2.017-2.288L476.681,198.277z M482.058,198.484l-2.012,2.267l-2.816-2.267l2.014-2.288
			L482.058,198.484z"/>
		<path fill="#FFFFFF" d="M455.921,212.881c0.686-0.671,2.189-1.533,4.511-2.586c1.906-0.854,3.118-1.848,3.638-2.976l0.435,0.16
			c1.099-2.258,2.129-3.387,3.092-3.387c1.097,0,2.06,0.801,2.883,2.401c0.686,1.374,1.029,2.679,1.029,3.915
			c0,0.549-0.184,1.25-0.549,2.105c-0.321,0.672-0.633,1.343-0.939,2.015c-1.145-0.26-2.333-0.726-3.568-1.396
			c-1.39-0.763-2.353-1.564-2.884-2.402c-0.293,1.098-1.2,1.975-2.724,2.631c-1.313,0.535-2.626,1.061-3.938,1.58
			c-1.326,0.764-1.99,1.847-1.99,3.25c0,1.603,0.824,3.014,2.473,4.233c1.326,0.962,2.897,1.648,4.713,2.06h-0.571
			c-5.22,0.062-7.828-1.715-7.828-5.332C453.701,216.375,454.441,214.285,455.921,212.881z M469.517,211.003
			c0-0.777-0.313-1.608-0.939-2.493c-0.67-0.976-1.372-1.466-2.104-1.466c-0.518,0-1.006,0.336-1.465,1.008
			C466.578,209.562,468.084,210.546,469.517,211.003z"/>
	</g>
	<g>
		<path fill="#D9272E" d="M248.901,77.038c0,0.45-0.247,0.86-0.648,1.067c-0.927,0.482-2.274,0.482-3.205,0
			c-0.397-0.208-0.645-0.617-0.645-1.067V75.96c0-0.449,0.247-0.86,0.645-1.066l0,0c0.93-0.484,2.277-0.484,3.205,0
			c0.401,0.207,0.648,0.617,0.648,1.066V77.038z"/>
		<path fill="#D9272E" d="M230.781,77.038c0,0.45-0.248,0.86-0.647,1.067c-0.928,0.482-2.275,0.482-3.205,0
			c-0.399-0.208-0.647-0.617-0.647-1.067V75.96c0-0.449,0.248-0.86,0.647-1.066l0,0c0.93-0.484,2.277-0.484,3.205,0
			c0.399,0.207,0.647,0.617,0.647,1.066V77.038z"/>
		<path fill="#D9272E" d="M237.53,77.038c0,0.45-0.248,0.86-0.647,1.067c-0.927,0.482-2.275,0.482-3.205,0
			c-0.399-0.208-0.647-0.617-0.647-1.067V75.96c0-0.449,0.248-0.86,0.647-1.066l0,0c0.929-0.484,2.278-0.484,3.205,0
			c0.399,0.207,0.647,0.617,0.647,1.066V77.038z"/>
		<path fill="#D9272E" d="M201.289,77.038c0,0.45-0.246,0.86-0.646,1.067c-0.927,0.482-2.274,0.482-3.205,0
			c-0.399-0.208-0.648-0.617-0.648-1.067V75.96c0-0.449,0.25-0.86,0.648-1.066l0,0c0.93-0.484,2.277-0.484,3.205,0
			c0.4,0.207,0.646,0.617,0.646,1.066V77.038z"/>
		<path fill="#D9272E" d="M208.037,77.038c0,0.45-0.246,0.86-0.645,1.067c-0.928,0.482-2.275,0.482-3.205,0
			c-0.399-0.208-0.647-0.617-0.647-1.067V75.96c0-0.449,0.248-0.86,0.647-1.066l0,0c0.93-0.484,2.276-0.484,3.205,0
			c0.399,0.207,0.645,0.617,0.645,1.066V77.038z"/>
		<path fill="#D9272E" d="M277.151,69.811c2.377,0.467,5.042,0.18,7.054-0.869c0.38-0.197,0.706-0.459,0.985-0.762
			c4.892,2.485,11.917,2.466,16.774-0.063c2.108-1.098,3.42-3.257,3.42-5.634v-5.649c0-2.376-1.312-4.536-3.42-5.634
			c-4.55-2.37-11.005-2.537-15.829-0.503v-1.129c0-0.078-0.03-0.146-0.083-0.199c-0.051-0.051-0.12-0.083-0.198-0.083
			c-0.038,0-0.075,0.008-0.109,0.023l-3.764,1.881c-0.069,0.028-0.128,0.069-0.179,0.122c-0.103,0.102-0.166,0.242-0.166,0.396
			l0.008,12.898c0,0.215-0.112,0.402-0.303,0.502c-1.089,0.567-2.798,0.567-3.887,0c-0.191-0.1-0.304-0.287-0.304-0.502
			l-0.004-7.771c0-2.376-1.309-4.536-3.417-5.634c-4.9-2.552-12.009-2.552-16.905,0c-2.11,1.099-3.419,3.258-3.419,5.634v5.649
			c0,2.377,1.309,4.536,3.417,5.634h0.002c4.548,2.37,11.004,2.534,15.828,0.501v2.301c0,0.705-0.374,1.32-0.999,1.644
			c-3.554,1.851-9.11,1.86-12.689,0.029h-5.335c0.457,1.687,1.596,3.128,3.196,3.96c4.896,2.552,12.01,2.552,16.905,0
			c2.107-1.099,3.421-3.258,3.421-5.634V69.811z M272.647,62.483c0,0.705-0.372,1.318-0.997,1.644
			c-3.573,1.863-9.175,1.863-12.749,0c-0.626-0.326-0.998-0.939-0.998-1.644v-5.649c0-0.705,0.372-1.319,0.998-1.644
			c3.574-1.863,9.176-1.863,12.749,0c0.625,0.325,0.997,0.939,0.997,1.644V62.483z M300.884,62.483c0,0.706-0.371,1.319-0.999,1.644
			c-3.575,1.862-9.176,1.862-12.753,0c-0.624-0.325-0.997-0.938-0.997-1.644v-5.649c0-0.704,0.374-1.319,0.997-1.644
			c3.577-1.863,9.178-1.863,12.753,0c0.625,0.325,0.999,0.94,0.999,1.644V62.483z"/>
		<path fill="#D9272E" d="M248.62,50.242h-3.937c-0.155,0-0.281,0.126-0.281,0.28v12.897c0,0.49-0.259,0.917-0.695,1.142
			c-2.482,1.294-6.376,1.294-8.859,0c-0.434-0.225-0.692-0.652-0.692-1.142l-0.005-12.897c0-0.154-0.126-0.28-0.281-0.28h-3.937
			c-0.155,0-0.281,0.126-0.281,0.28l0.006,12.897c0,0.49-0.259,0.917-0.693,1.142c-2.484,1.294-6.376,1.294-8.861,0
			c-0.434-0.225-0.693-0.652-0.693-1.142l-0.023-17.957c0-0.079-0.029-0.148-0.083-0.2c-0.051-0.051-0.122-0.082-0.199-0.082
			c-0.038,0-0.076,0.007-0.109,0.022l-3.766,1.881c-0.065,0.028-0.127,0.069-0.178,0.121c-0.102,0.103-0.164,0.243-0.164,0.396
			l0.023,15.818c0,0.49-0.259,0.917-0.694,1.142c-2.483,1.294-6.376,1.294-8.859,0c-0.434-0.225-0.692-0.652-0.692-1.142V50.522
			c0-0.154-0.126-0.28-0.281-0.28h-3.937c-0.157,0-0.281,0.126-0.281,0.28v12.897c0,0.49-0.259,0.917-0.692,1.142
			c-2.484,1.294-6.377,1.294-8.861,0c-0.381-0.198-0.629-0.552-0.684-0.968l-0.011-13.071c0-0.154-0.124-0.28-0.281-0.28H185.7
			c-0.153,0-0.281,0.126-0.281,0.28v12.897c0,0.49-0.259,0.917-0.692,1.142c-2.483,1.294-6.377,1.294-8.859,0
			c-0.434-0.225-0.693-0.652-0.693-1.142l-0.007-12.897c0-0.154-0.124-0.28-0.281-0.28h-3.937c-0.153,0-0.281,0.126-0.281,0.28
			l0.008,12.897c0,0.49-0.259,0.917-0.695,1.142c-2.484,1.294-6.376,1.294-8.861,0c-0.434-0.225-0.693-0.652-0.693-1.142
			l-0.022-12.897c0-0.154-0.124-0.28-0.281-0.28h-3.938c-0.155,0-0.28,0.126-0.28,0.28l0.018,20.396c0,0.705-0.372,1.32-0.997,1.644
			c-3.573,1.863-9.173,1.863-12.749,0h-5.281c0.452,1.698,1.595,3.152,3.205,3.99c4.896,2.552,12.005,2.552,16.905,0
			c2.107-1.099,3.417-3.258,3.417-5.634l0.003-1.708c3.792,1.295,8.549,1.054,11.977-0.73c0.182-0.095,0.35-0.206,0.514-0.32
			c0.169,0.116,0.343,0.224,0.527,0.32h0.002c3.97,2.068,9.73,2.068,13.702,0c0.183-0.096,0.354-0.203,0.52-0.316
			c0.168,0.113,0.339,0.22,0.521,0.316l0,0c3.97,2.068,9.734,2.068,13.705,0c0.182-0.096,0.354-0.203,0.521-0.316
			c0.167,0.113,0.339,0.22,0.521,0.316l0,0c3.97,2.068,9.733,2.068,13.705,0c0.183-0.096,0.354-0.203,0.52-0.316
			c0.166,0.113,0.339,0.22,0.519,0.316h0.002c3.97,2.068,9.732,2.068,13.703,0c0.182-0.095,0.35-0.206,0.516-0.32
			c0.169,0.116,0.343,0.224,0.527,0.32l0,0c3.97,2.068,9.733,2.068,13.705,0c1.708-0.89,2.77-2.64,2.77-4.566V50.522
			C248.901,50.369,248.775,50.242,248.62,50.242z"/>
	</g>
</g>
</svg>
