<?xml version="1.0" encoding="UTF-8"?>
<svg id="Layer_2" data-name="Layer 2" xmlns="http://www.w3.org/2000/svg" width="144.03mm" height="20.21mm" viewBox="0 0 408.27 57.28">
  <defs>
    <style>
      .cls-1 {
        fill: #0047ba;
        stroke-width: 0px;
      }
    </style>
  </defs>
  <g id="Layer_1-2" data-name="Layer 1">
    <path class="cls-1" d="M195.27,1.38l-15.62,54.5h-16.66l-11.17-41.97-11.17,41.97h-15.26L108.19,1.38h14.15l11.22,40.23L144,1.38h15.84l11.03,40.23L181.6,1.38h13.66ZM239.87,43.77c.11,4.14.84,7.85,1.15,12.1h-12.87l-.08-.47-.1-24.86-7.32.17c-6.34,0-15.74,1.06-15.74,9.45,0,4.68,3.91,6.69,8.98,6.69,4.33,0,7.7-1.91,9.92-4.89.24-.31.44-.64.65-.97v10.47c-3.7,3.74-9.06,5.79-14.05,5.79-9.61,0-19.01-5.84-19.01-16.26,0-8.17,3.91-12.95,9.29-15.61,5.39-2.66,12.35-3.19,18.26-3.19h7.81c0-8.82-3.9-11.79-12.25-11.79-6.02,0-15.97,3.34-20.72,6.95l3.51-13.21c5.49-2.55,12.88-4.15,18.9-4.15,16.58,0,23.44,6.91,23.44,23.05v7.01c0,5.52.1,9.66.21,13.7M245.77,1.39h14.23v54.49h-14.23V1.39ZM266.93,1.4h14.24v22l17.2-22.01h16.79l-20.4,24.57,22.57,29.92h-18.06l-17.9-26.18-.21,26.18h-14.24V1.4ZM319.88,1.39h14.24v54.49h-14.24V1.39ZM340.47,1.4h14.23v22l17.21-22.01h16.78l-20.4,24.57,22.58,29.92h-18.06l-17.9-26.18-.21,26.18h-14.23V1.4ZM394.04,1.39h14.23v54.49h-14.23V1.39ZM0,1.4h14.41v42.08h23.55v12.46H0V1.4ZM94.08,14.66c.3.77.55,2.39.72,3.16l-13.7-.18c-.4-.96-.83-1.81-1.31-2.56-.43-.67-.89-1.25-1.38-1.74-2.38-2.38-5.93-3.57-10.62-3.57s-8.55,1.67-11.3,5.03c-2.76,3.35-4.14,8.09-4.14,14.23s1.45,10.73,4.37,13.78c2.91,3.05,6.61,4.58,11.09,4.58s8.11-1.31,10.52-3.93c1.34-1.41,2.08-2.43,2.96-5.25l13.4-.19c-1.15,5.96-3.77,9.91-8.5,13.65-4.72,3.73-10.78,5.6-18.16,5.6-9.13,0-16.32-2.52-21.54-7.57-5.23-5.07-7.84-12.02-7.84-20.85,0-9.54,2.97-16.91,8.92-22.07C52.72,2.28,59.31.03,67.3.03c10.69,0,18.5,3.02,23.44,9.05,1.5,1.86,2.61,3.72,3.35,5.58"/>
  </g>
</svg>