<?xml version="1.0" encoding="utf-8"?>
<!-- Generator: Adobe Illustrator 17.0.0, SVG Export Plug-In . SVG Version: 6.00 Build 0)  -->
<!DOCTYPE svg PUBLIC "-//W3C//DTD SVG 1.1//EN" "http://www.w3.org/Graphics/SVG/1.1/DTD/svg11.dtd">
<svg version="1.1" id="Calque_1" xmlns="http://www.w3.org/2000/svg" xmlns:xlink="http://www.w3.org/1999/xlink" x="0px" y="0px"
	 width="676px" height="809px" viewBox="0 0 676 809" enable-background="new 0 0 676 809" xml:space="preserve">
<path fill="#F8F7F7" d="M438.079,102.12l88.084,207.2h58.681C575,215.76,517.32,137.4,438.079,102.12z"/>
<linearGradient id="SVGID_1_" gradientUnits="userSpaceOnUse" x1="30.6" y1="481.16" x2="639.6" y2="481.16" gradientTransform="matrix(1 0 0 -1 8.4 819.16)">
	<stop  offset="0" style="stop-color:#FFFFFF"/>
	<stop  offset="0.1177" style="stop-color:#DEDEDE"/>
	<stop  offset="0.5582" style="stop-color:#686868"/>
	<stop  offset="0.8609" style="stop-color:#1D1D1D"/>
	<stop  offset="1" style="stop-color:#000000"/>
</linearGradient>
<path fill="url(#SVGID_1_)" d="M343.48,16C175.32,16,39,160.16,39,338s136.32,322,304.48,322S648,515.84,648,338
	S511.64,16,343.48,16z M584.84,309.32h-58.681l-88.084-207.2C517.32,137.4,575,215.76,584.84,309.32z M343.64,82
	c4.96,0,9.84,0.16,14.72,0.48l-88.52,293.04L248.32,318h-146.6C111.28,186,215.96,82,343.64,82z M102.04,361.64l64.76-0.12
	l91.24,215.6C173,543.32,110.76,460.68,102.04,361.64z M343.64,593.521c-9.08,0-18.04-0.521-26.84-1.561l77.2-337.8l44.199,99.72
	l147.601,0.56C577.64,487.92,472.36,593.521,343.64,593.521z"/>
<path fill="#040A3C" d="M258.04,577.12c-85.04-33.8-147.28-116.44-156-215.48l64.76-0.12L258.04,577.12z"/>
<path fill="#040A3C" d="M358.36,82.48l-88.52,293.04L248.32,318h-146.6c9.56-132,114.24-236,241.92-236
	C348.6,82,353.48,82.16,358.36,82.48z"/>
<path fill="#040A3C" d="M584.84,309.32h-58.681l-88.084-207.2C517.32,137.4,575,215.76,584.84,309.32z"/>
<path fill="#040A3C" d="M585.8,354.44c-8.16,133.484-113.44,239.081-242.16,239.081c-9.08,0-18.04-0.521-26.84-1.561l77.2-337.8
	l44.199,99.72L585.8,354.44z"/>
<g>
	<path fill="#040A3C" d="M110.608,775.28H79.56v-27.876h31.048c3.704,7.584,10.681,11.376,20.933,11.376
		c7.407,0,11.111-1.876,11.111-5.624c0-1.96-1.292-3.584-3.867-4.876c-2.776-1.416-8.633-3.376-17.561-5.88
		c-11.244-3.208-19.508-5.977-24.8-8.313c-4.96-2.124-9.192-5.063-12.696-8.812c-3.504-3.708-5.256-7.813-5.256-12.313
		c0-8.084,4.168-14.4,12.5-18.936c8.264-4.544,18.452-6.813,30.552-6.813c12.104,0,22.353,2.164,30.752,6.5v-5.376h31.248v24.752
		h-30.852c-3.769-6.832-10.452-10.252-20.04-10.252c-6.748,0-10.12,1.813-10.12,5.437c0,1.752,0.96,3.063,2.876,3.936
		c1.853,0.916,7.836,2.936,17.956,6.064c13.556,4.252,22.62,7.355,27.18,9.312c2.316,0.96,4.677,2.304,7.093,4.032
		c2.411,1.731,4.416,3.512,6,5.344c3.636,4.084,5.455,8.504,5.455,13.252c0,7.288-4.3,13.456-12.896,18.5
		c-8.596,5.124-19.444,7.688-32.536,7.688c-12.168,0-23.18-2.269-33.036-6.813v5.688h0.004V775.28z"/>
	<path fill="#040A3C" d="M260.604,775.28H203.96v-20.813h12.104v-45.315H203.96V688.34h65.372l50.195,45.437v-24.624H308.32V688.34
		h55.652v20.813h-12v67.252h-45.439L248.4,723.84v30.628h12.204V775.28L260.604,775.28z"/>
	<path fill="#040A3C" d="M469.82,776.032h-52.956l-44.044-66.88H362.6V688.34h74.204v20.813h-11.708l20.536,37.067l21.523-37.067
		h-11.304V688.34H511.5v20.813h-0.221L469.82,776.032z"/>
	<path fill="#040A3C" d="M609,775.28h-78.668v-20.813h12.699v-45.315h-12.699V688.34H609v20.813h-12.6v45.315H609V775.28z"/>
</g>
</svg>
