<svg xmlns="http://www.w3.org/2000/svg" viewBox="0 0 220 60" fill="none">
  <!-- Bouclier de protection -->
  <path d="M25 6C25 6 14 10 6 10C6 10 6 28 6 36C6 48 25 58 25 58C25 58 44 48 44 36C44 28 44 10 44 10C36 10 25 6 25 6Z" fill="#dc2626" stroke="#b91c1c" stroke-width="1.5"/>

  <!-- Intérieur du bouclier - dégradé -->
  <path d="M25 10C25 10 17 13 11 13C11 13 11 28 11 34C11 44 25 52 25 52C25 52 39 44 39 34C39 28 39 13 39 13C33 13 25 10 25 10Z" fill="#F77F00" opacity="0.4"/>

  <!-- Caméra de surveillance -->
  <rect x="14" y="22" width="16" height="11" rx="2" fill="white"/>
  <circle cx="22" cy="27.5" r="4" fill="#dc2626"/>
  <circle cx="22" cy="27.5" r="2" fill="#991b1b"/>
  <path d="M30 24L37 19V36L30 31V24Z" fill="white"/>

  <!-- LED de la caméra -->
  <circle cx="17" cy="24" r="1.2" fill="#22c55e"/>

  <!-- Signal de protection -->
  <path d="M16 40L21 45L34 32" stroke="#FCBF49" stroke-width="2.5" stroke-linecap="round" stroke-linejoin="round"/>

  <!-- Texte IGNIFEU -->
  <text x="52" y="38" font-family="Arial, Helvetica, sans-serif" font-size="26" font-weight="bold" fill="#dc2626">IGNIFEU</text>

  <!-- Sous-titre -->
  <text x="52" y="52" font-family="Arial, Helvetica, sans-serif" font-size="8" fill="#64748b" letter-spacing="2">SÉCURITÉ &amp; PROTECTION</text>
</svg>
